<svg id="Logo_1" data-name="Logo 1" xmlns="http://www.w3.org/2000/svg" viewBox="0 0 1000 1000"><defs><style>.cls-1{fill:#007dbf;}.cls-2{fill:#201e2b;}</style></defs><g id="Colored"><path class="cls-1" d="M147.17,690.58a10,10,0,0,1-.88,4.19,11.06,11.06,0,0,1-2.44,3.45,12.45,12.45,0,0,1-3.57,2.38,10.45,10.45,0,0,1-4.26.88,11.49,11.49,0,0,1-4.26-.81,11.16,11.16,0,0,1-3.51-2.27,10.75,10.75,0,0,1-3.25-7.82,10,10,0,0,1,1-4.38,11.94,11.94,0,0,1,2.44-3.51,10.4,10.4,0,0,1,3.5-2.32,11.09,11.09,0,0,1,4.13-.81,10.45,10.45,0,0,1,4.26.88,12.06,12.06,0,0,1,3.57,2.38,10.83,10.83,0,0,1,2.44,3.5A10.62,10.62,0,0,1,147.17,690.58Z"/><polygon class="cls-1" points="202.14 711.12 202.14 724.52 152.05 724.52 181.73 695.72 181.73 711.12 202.14 711.12"/><path class="cls-1" d="M330.38,709.11v14.28H313.47a19.4,19.4,0,0,1,2.57-7.33,13.53,13.53,0,0,1,4.26-4.32,15.84,15.84,0,0,1,5.13-2.06A24,24,0,0,1,330.38,709.11Z"/><polygon class="cls-1" points="656.73 711.12 656.73 724.52 606.63 724.52 636.32 695.72 636.32 711.12 656.73 711.12"/><path class="cls-1" d="M801.49,730.91l-14.78,4.75a18.6,18.6,0,0,0-6.38-8.51,17,17,0,0,0-10.4-3.26,11.45,11.45,0,0,0-2.88.31,14,14,0,0,0-2.38.95l4.26-15.91h.5a39.36,39.36,0,0,1,9.65,1.19,30.89,30.89,0,0,1,8.95,3.82,33.35,33.35,0,0,1,7.7,6.76A34.75,34.75,0,0,1,801.49,730.91Z"/><path class="cls-2" d="M128,711.12v63.11h16.28V711.12Z"/><path class="cls-2" d="M193.37,760.84a12.61,12.61,0,0,1-8.44-2.7q-3.19-2.7-3.2-9.2v-18l-16.16,7v13q0,11.77,6.4,18.34t17,6.58A31.1,31.1,0,0,0,202.14,773V758.71A17.9,17.9,0,0,1,193.37,760.84Z"/><path class="cls-2" d="M261.5,686.07H277v88.16H261.5v-8.89a23.77,23.77,0,0,1-9.77,8.2,28,28,0,0,1-11.52,2.57,30.89,30.89,0,0,1-22.79-9.64A31.72,31.72,0,0,1,210.85,756a35.47,35.47,0,0,1-2.32-12.9,36.29,36.29,0,0,1,2.38-13.27,32.48,32.48,0,0,1,6.7-10.71,31.28,31.28,0,0,1,23.1-9.83A21,21,0,0,1,249,711l4.51,15.91a17.7,17.7,0,0,0-10.27-3,19.54,19.54,0,0,0-7.33,1.38,18.23,18.23,0,0,0-6,3.88,17.8,17.8,0,0,0-4,6,20.64,20.64,0,0,0,0,15.15,18.26,18.26,0,0,0,3.95,6,17.33,17.33,0,0,0,6,3.88,19.45,19.45,0,0,0,7.32,1.38,18.78,18.78,0,0,0,7.58-1.5,17.24,17.24,0,0,0,9.52-10,20.11,20.11,0,0,0,1.31-7.2Z"/><path class="cls-2" d="M293.56,711.12v63.11h16.28V711.12Z"/><path class="cls-2" d="M399.13,741.42a26.25,26.25,0,0,1-.19,3.13c-.12,1.09-.27,2.13-.44,3.13H350a19,19,0,0,0,2.69,7.33,16.42,16.42,0,0,0,4.57,4.7,17.73,17.73,0,0,0,5.7,2.5,25.47,25.47,0,0,0,6.07.75,20.45,20.45,0,0,0,8.71-1.88,16.84,16.84,0,0,0,6.7-5.51l11.14,7.77A27.28,27.28,0,0,1,384.1,773a37,37,0,0,1-15.28,3.13,38,38,0,0,1-14.09-2.5,31.06,31.06,0,0,1-10.77-7A31.62,31.62,0,0,1,337.08,756a35.54,35.54,0,0,1-2.45-13.27A34,34,0,0,1,339,725.46a31,31,0,0,1,11.83-11.84l3.76,14.65a20.74,20.74,0,0,0-2.63,3.89,20.15,20.15,0,0,0-1.76,4.76h34.07a19,19,0,0,0-5.45-10.59,15.44,15.44,0,0,0-11.21-4.19,10.69,10.69,0,0,0-4.38,1l3.5-13.9h.76a32.11,32.11,0,0,1,13.08,2.57,30,30,0,0,1,10,7,31.78,31.78,0,0,1,6.38,10.27A33.69,33.69,0,0,1,399.13,741.42Z"/><path class="cls-2" d="M460.24,711.12h15.53v63.11H460.24v-9a24.32,24.32,0,0,1-9.77,8.26A27.43,27.43,0,0,1,439,776.11a31.43,31.43,0,0,1-12.77-2.57,29.72,29.72,0,0,1-10.08-7.07A33.27,33.27,0,0,1,409.52,756a34.67,34.67,0,0,1-2.38-12.9,36.29,36.29,0,0,1,2.38-13.27,32.64,32.64,0,0,1,6.7-10.71,31.34,31.34,0,0,1,10.27-7.2,31.71,31.71,0,0,1,13-2.63,20.7,20.7,0,0,1,8.14,1.75l4.63,15.91a17.64,17.64,0,0,0-10.26-3,19.54,19.54,0,0,0-7.33,1.38,18.13,18.13,0,0,0-6,3.88,17.8,17.8,0,0,0-4,6,20.64,20.64,0,0,0,0,15.15,18.26,18.26,0,0,0,3.95,6,17.29,17.29,0,0,0,5.94,3.88,19.54,19.54,0,0,0,7.33,1.38,18.78,18.78,0,0,0,7.58-1.5,17.72,17.72,0,0,0,5.82-4,17.48,17.48,0,0,0,3.69-6,19.9,19.9,0,0,0,1.32-7.2Z"/><path class="cls-2" d="M492.17,774.23V711.12h16.28v63.11Zm46.09,0V738.92q0-7.14-3.7-11.15t-10.33-4a16,16,0,0,0-8.39,2.12l4.51-15.27a22.59,22.59,0,0,1,4.38-1.07,33.59,33.59,0,0,1,4.64-.31,28.38,28.38,0,0,1,10.77,1.88A21.29,21.29,0,0,1,548,716.5a23.13,23.13,0,0,1,4.82,8.39,33.8,33.8,0,0,1,1.63,10.77v38.57Zm46,0V739.17q0-7.14-3.63-11.21t-10.4-4.07a15.33,15.33,0,0,0-9.39,2.88l3-15.4a18.57,18.57,0,0,1,5.26-1.63,34.22,34.22,0,0,1,5.51-.5,30.4,30.4,0,0,1,11.53,2,22.22,22.22,0,0,1,8.07,5.51,22.52,22.52,0,0,1,4.76,8.33,33.93,33.93,0,0,1,1.57,10.58v38.57Z"/><path class="cls-2" d="M648,760.84a12.67,12.67,0,0,1-8.46-2.7q-3.18-2.7-3.18-9.2v-18l-16.16,7v13q0,11.77,6.38,18.34t17,6.58A31.14,31.14,0,0,0,656.73,773V758.71A18,18,0,0,1,648,760.84Z"/><path class="cls-2" d="M727.48,741.42a26.25,26.25,0,0,1-.19,3.13c-.12,1.09-.27,2.13-.44,3.13H678.39a19,19,0,0,0,2.69,7.33,16.55,16.55,0,0,0,4.57,4.7,17.82,17.82,0,0,0,5.7,2.5,25.55,25.55,0,0,0,6.08.75,20.41,20.41,0,0,0,8.7-1.88,16.77,16.77,0,0,0,6.7-5.51L724,763.34A27.28,27.28,0,0,1,712.45,773a37,37,0,0,1-15.27,3.13,37.93,37.93,0,0,1-14.09-2.5,30.87,30.87,0,0,1-10.77-7A31.65,31.65,0,0,1,665.43,756,35.54,35.54,0,0,1,663,742.68a34.14,34.14,0,0,1,4.32-17.22,31,31,0,0,1,11.83-11.84l3.76,14.65a21.24,21.24,0,0,0-2.63,3.89,19.71,19.71,0,0,0-1.75,4.76h34.06a18.93,18.93,0,0,0-5.45-10.59,15.44,15.44,0,0,0-11.21-4.19,10.69,10.69,0,0,0-4.38,1l3.51-13.9h.75a32.11,32.11,0,0,1,13.08,2.57,29.87,29.87,0,0,1,10,7,32,32,0,0,1,6.39,10.27A33.89,33.89,0,0,1,727.48,741.42Z"/><path class="cls-2" d="M787.21,749.06a19.07,19.07,0,0,1-6.57,9.15,19.35,19.35,0,0,1-17.91,1.87A17,17,0,0,1,757,756.2a17.66,17.66,0,0,1-3.82-6,20.62,20.62,0,0,1-1.37-7.63,16.63,16.63,0,0,1,1.06-6,17.41,17.41,0,0,1,2.82-4.88l-2.51-18.53A31.35,31.35,0,0,0,740.31,725a33.1,33.1,0,0,0-4.69,17.59,34.94,34.94,0,0,0,2.51,13.4,31.47,31.47,0,0,0,17.71,17.66,35.63,35.63,0,0,0,13.47,2.5,37,37,0,0,0,10-1.38,34.21,34.21,0,0,0,9.26-4.13,33,33,0,0,0,7.76-7,32.05,32.05,0,0,0,5.45-10Z"/><path class="cls-2" d="M812.76,774.23V686.07H829v88.16Zm46.09,0V738.92q0-7.14-3.7-11.15t-10.33-4a15.94,15.94,0,0,0-8.39,2.12l4.51-15.27a22.59,22.59,0,0,1,4.38-1.07,33.44,33.44,0,0,1,4.63-.31,28.38,28.38,0,0,1,10.77,1.88,21.25,21.25,0,0,1,7.83,5.38,23.13,23.13,0,0,1,4.82,8.39A33.8,33.8,0,0,1,875,735.66v38.57Z"/><path class="cls-2" d="M546.17,248.52a39.31,39.31,0,0,0-8.89-12.77,45.21,45.21,0,0,0-13-8.67,38.21,38.21,0,0,0-15.51-3.19,39.5,39.5,0,0,0-15,3A38.29,38.29,0,0,0,481,235.29a44.64,44.64,0,0,0-8.89,12.77,37.14,37.14,0,0,0-3.42,16,39.4,39.4,0,0,0,3.19,16,38.05,38.05,0,0,0,8.67,12.54,40.05,40.05,0,0,0,12.77,8.21,40.73,40.73,0,0,0,15.5,3,38.21,38.21,0,0,0,15.51-3.19,45.21,45.21,0,0,0,13-8.67,40.12,40.12,0,0,0,8.89-12.54A37.27,37.27,0,0,0,549.36,264,38.87,38.87,0,0,0,546.17,248.52Z"/><path class="cls-1" d="M589.39,334.9,481.3,439.8V383.7H407V334.9Z"/><path class="cls-2" d="M435.54,411.06a76.49,76.49,0,0,0-30.1-6.39q-25.54,0-47,9.58a115.33,115.33,0,0,0-37.17,26.22,118.52,118.52,0,0,0-24.4,39,132.5,132.5,0,0,0-8.67,48.34,129.58,129.58,0,0,0,8.44,47,115.77,115.77,0,0,0,23.95,38.31,111.93,111.93,0,0,0,36.71,25.77,113.53,113.53,0,0,0,46.29,9.35,102.35,102.35,0,0,0,42-9.35q21-9.35,35.58-29.87v32.38H537.7V465.5l-56.55,57.26v4.14a73,73,0,0,1-4.79,26.23,62.6,62.6,0,0,1-34.66,36.26,68.4,68.4,0,0,1-27.6,5.47,71.07,71.07,0,0,1-26.68-5,63.65,63.65,0,0,1-21.66-14.14A66.67,66.67,0,0,1,351.39,554a75.28,75.28,0,0,1,0-55.19A64.79,64.79,0,0,1,366,477.19a66.12,66.12,0,0,1,21.89-14.14,71.23,71.23,0,0,1,26.68-5,70.33,70.33,0,0,1,21,3Z"/><path class="cls-1" d="M540.74,461.24l108.1-104.9v56.1h62.94v48.8Zm96.7,4.26v84.67q0,23.73,11.62,33.53t30.79,9.8a65.3,65.3,0,0,0,31.93-7.75v52a113.22,113.22,0,0,1-47.89,10.49q-38.77,0-62-23.94T578.6,557.47V522.76Z"/></g></svg>